<svg xmlns:xlink="http://www.w3.org/1999/xlink" xmlns="http://www.w3.org/2000/svg" width="24" height="24" viewBox="0 0 24 24" class="Icon_icon__1R9KC"><g fill="#007CC2"><path d="M21.5 21h-1L15 12.75l4.55-3.05a1 1 0 00.28-1.39 7 7 0 00-8-2.74 6.69 6.69 0 00-1.64.79h-.08a7.12 7.12 0 00-1.38 1.26 7 7 0 00-.54 8.47 1 1 0 001.39.28l4.57-3.06L19.29 21H2.5a.5.5 0 000 1h19a.5.5 0 000-1zM19 8.87l-2.65 1.76a6.26 6.26 0 00-.68-1.34 6.46 6.46 0 00-3.81-2.69A6 6 0 0119 8.87zM9 15.53a6 6 0 01.64-7.46 6.49 6.49 0 001 4.55 6.84 6.84 0 001 1.15zm3.5-2.34a5.23 5.23 0 01-1-1.13 5.51 5.51 0 01-.69-4.63 5.42 5.42 0 014.67 3.78zM4.5 4A1.5 1.5 0 113 5.5 1.5 1.5 0 014.5 4m0-1A2.5 2.5 0 107 5.5 2.5 2.5 0 004.5 3z" fill="#007CC2"></path></g></svg>