<svg width="1000" height="232" viewBox="0 0 1000 232" fill="none" xmlns="http://www.w3.org/2000/svg">
<g clip-path="url(#clip0_1_4)">
<g clip-path="url(#clip1_1_4)">
<g clip-path="url(#clip2_1_4)">
<g clip-path="url(#clip3_1_4)">
<g clip-path="url(#clip4_1_4)">
<g clip-path="url(#clip5_1_4)">
<path d="M45.058 165.289L73.9714 158.687L82.8503 146.393L82.3949 126.131L72.15 115.203L14.3233 83.1025L3.85069 58.5147L5.89966 37.1142L18.8765 19.5841L50.5219 9.11151L85.3546 11.8435L96.0548 10.9328L94.2335 22.5437L94.4612 52.3678L86.0376 54.1891L80.1183 24.1374L53.2539 20.4947L30.2598 29.146L25.0235 44.1719L30.0321 63.5233L87.4036 94.941L104.251 112.471L105.161 148.442L87.6312 170.298L54.1645 177.583L12.0466 172.575L1.34637 170.981L3.16769 162.102L5.21667 132.278L13.6403 130.457L17.2829 160.508L45.058 165.289ZM185.755 114.293L146.369 111.788L146.141 113.837L152.288 145.938L170.273 163.696L191.219 165.972L212.619 154.589L216.717 160.508L198.732 174.851L177.331 177.583L155.02 172.347L135.668 156.183L124.058 122.033L127.928 91.5261L139.766 70.1256L163.671 56.9211L183.706 54.4168L199.642 59.4254L211.936 70.5809L218.994 90.8431L219.221 109.739L216.034 112.244L185.755 114.293ZM175.054 64.6617L157.752 74.9066L148.873 92.2091L147.507 102.454L182.112 102.909L197.821 99.4943L196.455 78.3215L189.625 66.7106L175.054 64.6617ZM298.403 114.293L259.063 111.788L258.835 113.837L264.982 145.938L282.967 163.696L303.913 165.972L325.313 154.589L329.411 160.508L311.425 174.851L290.025 177.583L267.714 172.347L248.362 156.183L236.751 122.033L240.622 91.5261L252.46 70.1256L276.365 56.9211L296.4 54.4168L312.336 59.4254L324.584 70.5809L331.688 90.8431L331.915 109.739L328.728 112.244L298.403 114.293ZM287.748 64.6617L270.446 74.9066L261.567 92.2091L260.201 102.454L294.806 102.909L310.515 99.4943L309.149 78.3215L302.319 66.7106L287.748 64.6617ZM388.786 110.195L412.691 83.7855L423.163 68.532L407.91 66.0276L409.048 58.0594L432.953 59.1977L453.898 58.0594L453.443 66.0276L437.506 71.0363L404.95 106.097L423.846 132.733L447.296 161.647L460.728 166.2L459.59 174.168L435.912 173.03L414.284 174.168L414.74 166.2L425.668 165.517L419.521 154.134L393.111 119.073H381.956L382.411 135.238L382.867 161.647L398.575 166.2L397.209 174.168L371.939 173.03L342.798 174.168L343.708 166.2L359.645 162.33L360.328 137.742L361.238 87.8834L360.328 37.1142L359.189 14.3478L343.025 15.0308L341.887 7.06252L373.305 0.915588L384.688 3.41989L383.094 33.4716L381.728 110.195H388.786ZM516.733 165.289L545.647 158.687L554.526 146.393L554.07 126.131L543.825 115.203L485.999 83.1025L475.526 58.5147L477.575 37.1142L490.552 19.5841L522.197 9.11151L557.03 11.8435L567.73 10.9328L565.909 22.5437L566.137 52.3678L557.713 54.1891L551.794 24.1374L524.929 20.4947L501.935 29.146L496.699 44.1719L501.707 63.5233L559.079 94.941L575.926 112.471L576.837 148.442L559.307 170.298L525.84 177.583L483.722 172.575L473.022 170.981L474.843 162.102L476.892 132.278L485.316 130.457L488.958 160.508L516.733 165.289ZM618.272 173.03L590.497 174.168L590.952 166.2L605.978 161.647L607.116 137.742L608.027 87.8834L606.661 37.1142L605.522 14.3478L589.358 15.0308L588.22 7.06252L619.638 0.915588L631.021 3.41989L629.427 33.4716L628.061 113.154L628.744 135.238L630.566 161.647L647.185 166.2L646.047 174.168L618.272 173.03ZM720.903 114.293L681.517 111.788L681.335 113.837L687.436 145.938L705.422 163.696L726.412 165.972L747.767 154.589L751.911 160.508L733.88 174.851L712.479 177.583L690.168 172.347L670.817 156.183L659.251 122.033L663.122 91.5261L674.915 70.1256L698.819 56.9211L718.899 54.4168L734.836 59.4254L747.084 70.5809L754.187 90.8431L754.415 109.739L751.182 112.244L720.903 114.293ZM710.203 64.6617L692.9 74.9066L684.021 92.2091L682.655 102.454L717.306 102.909L732.969 99.4943L731.603 78.3215L724.773 66.7106L710.203 64.6617ZM833.597 114.293L794.211 111.788L793.983 113.837L800.13 145.938L818.116 163.696L839.061 165.972L860.461 154.589L864.559 160.508L846.574 174.851L825.173 177.583L802.862 172.347L783.511 156.183L771.9 122.033L775.77 91.5261L787.609 70.1256L811.513 56.9211L831.548 54.4168L847.484 59.4254L859.778 70.5809L866.836 90.8431L867.063 109.739L863.876 112.244L833.597 114.293ZM822.897 64.6617L805.594 74.9066L796.715 92.2091L795.349 102.454L829.954 102.909L845.663 99.4943L844.297 78.3215L837.467 66.7106L822.897 64.6617ZM917.15 58.7424L917.377 69.4426H918.971L943.331 54.6444L968.602 57.3764L985.221 69.215L998.426 96.307L998.654 135.01L990.002 152.995L963.821 174.168L938.55 177.583L916.922 171.892L917.605 192.154L919.426 218.563L936.046 223.116L934.907 231.084L907.132 229.946L879.357 231.084L879.813 223.116L894.839 218.563L895.977 194.658L896.887 144.8L895.521 94.0304L894.383 69.6703L878.219 70.3533L877.081 62.385L908.498 56.2381L917.15 58.7424ZM918.288 90.3878L917.15 159.37L941.737 167.338L956.08 163.24L973.61 144.572L976.798 118.39L969.968 80.1428L949.706 68.0766L917.833 79.0045L918.288 90.3878Z" fill="black"/>
</g>
</g>
</g>
</g>
</g>
</g>
<defs>
<clipPath id="clip0_1_4">
<rect width="997.398" height="230.169" fill="white" transform="translate(1.30084 0.915588)"/>
</clipPath>
<clipPath id="clip1_1_4">
<rect width="997.398" height="230.169" fill="white" transform="translate(1.30084 0.915588)"/>
</clipPath>
<clipPath id="clip2_1_4">
<rect width="997.398" height="230.169" fill="white" transform="translate(1.30084 0.915588)"/>
</clipPath>
<clipPath id="clip3_1_4">
<rect width="997.398" height="230.169" fill="white" transform="translate(1.30084 0.915588)"/>
</clipPath>
<clipPath id="clip4_1_4">
<rect width="997.398" height="230.169" fill="white" transform="translate(1.30084 0.915588)"/>
</clipPath>
<clipPath id="clip5_1_4">
<rect width="997.398" height="230.169" fill="white" transform="translate(1.30084 0.915588)"/>
</clipPath>
</defs>
</svg>
