<svg xmlns:xlink="http://www.w3.org/1999/xlink" xmlns="http://www.w3.org/2000/svg" width="24" height="24" viewBox="0 0 24 24" class="Icon_icon__1R9KC"><g fill="#007CC2"><path d="M12 11c-3.53 0-6 3-6 7.22C6 19.26 6 21 7.75 21a4.11 4.11 0 002-.82 5.05 5.05 0 012.26-1 5.29 5.29 0 012.29 1 4.14 4.14 0 002 .82c1.7 0 1.7-1.67 1.7-2.78C18 14 15.53 11 12 11z" fill="#007CC2"></path><ellipse cx="4.5" cy="11.5" rx="2.33" ry="2.66" transform="rotate(-45.01 4.5 11.493)" fill="#007CC2"></ellipse><ellipse cx="8.5" cy="7" rx="2.49" ry="3.01" transform="rotate(-7.48 8.53 7.01)" fill="#007CC2"></ellipse><ellipse cx="19.5" cy="11.5" rx="2.66" ry="2.33" transform="rotate(-44.99 19.497 11.497)" fill="#007CC2"></ellipse><ellipse cx="15.5" cy="7" rx="3.01" ry="2.49" transform="rotate(-82.52 15.5 7.003)" fill="#007CC2"></ellipse></g></svg>