<svg xmlns:xlink="http://www.w3.org/1999/xlink" xmlns="http://www.w3.org/2000/svg" width="24" height="24" viewBox="0 0 24 24" class="Icon_icon__1R9KC"><g fill="#007CC2"><path d="M15 14a2 2 0 00-2 2 1 1 0 01-2 0 2 2 0 00-4 0 .5.5 0 001 0 1 1 0 012 0 2 2 0 004 0 1 1 0 012 0 .5.5 0 001 0 2 2 0 00-2-2zM10.5 18.5a.5.5 0 00-.5.5 1 1 0 01-2 0 2 2 0 00-4 0 .5.5 0 001 0 1 1 0 012 0 2 2 0 004 0 .5.5 0 00-.5-.5zM13.5 18.5a.5.5 0 01.5.5 1 1 0 002 0 2 2 0 014 0 .5.5 0 01-1 0 1 1 0 00-2 0 2 2 0 01-4 0 .5.5 0 01.5-.5zM16.5 2A1.5 1.5 0 0015 3.5V7H8V3.5a.5.5 0 011 0v1a.5.5 0 001 0v-1a1.5 1.5 0 00-3 0v9a.5.5 0 001 0V11h7v1.5a.5.5 0 001 0v-9a.5.5 0 011 0v1a.5.5 0 001 0v-1A1.5 1.5 0 0016.5 2zM8 10V8h7v2z" fill="#007CC2"></path></g></svg>