<svg xmlns:xlink="http://www.w3.org/1999/xlink" xmlns="http://www.w3.org/2000/svg" width="24" height="24" viewBox="0 0 24 24" class="Icon_icon__1R9KC"><g fill="#007CC2"><path d="M16 12a4 4 0 01-8 0c0-2.21 4-7 4-7s4 4.79 4 7z" fill="#007CC2"></path><path d="M17 12.53a5.23 5.23 0 01-.21 1C19.43 14.12 21 15.18 21 16c0 1.22-3.51 3-9 3s-9-1.78-9-3c0-.82 1.57-1.88 4.26-2.5a5.23 5.23 0 01-.21-1c-3 .69-5 2-5 3.47 0 2.21 4.48 4 10 4s10-1.79 10-4C22 14.51 20 13.22 17 12.53z" fill="#007CC2"></path><path d="M17.83 16c-.67.42-2.69 1-5.83 1s-5.16-.58-5.83-1a6.79 6.79 0 012.12-.68 5.1 5.1 0 01-.63-.89C6 14.8 5 15.36 5 16c0 1.1 3.13 2 7 2s7-.9 7-2c0-.64-1-1.2-2.66-1.57a5.1 5.1 0 01-.63.89 6.79 6.79 0 012.12.68z" fill="#007CC2"></path></g></svg>